<?xml version="1.0" ?><!DOCTYPE svg  PUBLIC '-//W3C//DTD SVG 1.1//EN'  'http://www.w3.org/Graphics/SVG/1.1/DTD/svg11.dtd'><svg height="512px" style="enable-background:new 0 0 512 512;" version="1.1" viewBox="0 0 512 512" width="512px" xml:space="preserve" xmlns="http://www.w3.org/2000/svg" xmlns:xlink="http://www.w3.org/1999/xlink"><g id="_x37_09_x2C__Crown_x2C__honor_x2C__king_x2C__market_x2C__royal"><g><path d="M351.217,156.201c-1.332-1.331-3.17-2.154-5.176-2.154    s-3.842,0.823-5.174,2.154c-1.31,1.309-2.133,3.146-2.133,5.174c0,2.007,0.823,3.844,2.133,5.152    c1.332,1.332,3.168,2.154,5.174,2.154s3.844-0.822,5.176-2.154c1.309-1.309,2.131-3.146,2.131-5.152    C353.348,159.348,352.525,157.51,351.217,156.201 M168.682,156.053c-1.33-1.33-3.167-2.154-5.173-2.154    c-2.028,0-3.845,0.824-5.175,2.154c-1.33,1.309-2.134,3.147-2.134,5.152c0,2.028,0.804,3.844,2.134,5.176    c1.33,1.33,3.146,2.133,5.175,2.133c1.858,0,3.548-0.676,4.836-1.838h0.021l0.084-0.063l0.021-0.042h0.021l0.063-0.063v-0.021    l0.042-0.043h0.021l0.021-0.021l0.042-0.042l0.042-0.043v-0.021l0.042-0.021c1.269-1.309,2.049-3.104,2.049-5.09    C170.815,159.2,169.993,157.361,168.682,156.053z M265.619,414.172c-0.486,6.188-1.309,16.326,0.317,18.691    c1.288,1.879,4.773,2.766,8.68,3.759l3.526,0.928c9.081,2.62,18.29,7.879,27.245,13.01c9.313,5.322,18.396,10.519,26.335,12.103    c0.718,0.126,0.823,0.526,0.887,0.4c0.232-0.465,0.232-1.858,0.212-3.695c-0.021-3.464,0.591-10.18,1.288-17.804    c1.352-14.826,3.02-33.326,1.225-35.818c-0.633-0.886-1.669-1.585-3.104-2.155c-1.606-0.654-3.675-1.117-6.125-1.414h-0.022    h-0.042h-0.063v-0.021l-0.294-0.021l0,0l-0.297-0.042l0,0l-0.316-0.021l0,0l-0.338-0.042l-0.316-0.021l0,0l-0.339-0.042l0,0    l-0.358-0.021l0,0l-0.359-0.042L323,401.881l0,0l-0.379-0.021l0,0l-0.381-0.044l0,0l-0.381-0.021l-0.4-0.021l0,0l-0.401-0.021l0,0    l-0.423-0.021l-0.422-0.021v-0.021l-0.422-0.021l0,0l-0.424-0.021l0,0l-0.443-0.021l0,0l-0.442-0.021l0,0l-0.444-0.021h-0.021    l-0.444-0.021l0,0h-0.465l0,0l-0.463-0.021h-0.021l-0.465-0.021l0,0l-0.486-0.021l0,0h-0.465h-0.021l-0.485-0.021l0,0    l-0.484-0.021l0,0l-0.507-0.021l0,0h-0.508l0,0l-0.507-0.021l0,0h-0.507l0,0l-0.508-0.021h-0.021h-0.507l0,0h-0.527l0,0    l-0.527-0.021l0,0h-0.529h-0.021h-0.507h-0.021h-0.527l0,0l-0.529-0.021h-0.021h-0.528h-0.021h-0.527l0,0h-0.55l0,0h-0.549l0,0    h-0.55l0,0H304.1l0,0h-0.55l0,0h-0.549h-0.021l-0.549,0.021l0,0h-0.55h-0.021h-0.55l0,0l-0.549,0.021h-0.021h-0.549l0,0h-0.57l0,0    l-0.549,0.021h-0.021h-0.549l0,0l-0.55,0.021h-0.021l-0.55,0.021l0,0h-0.549h-0.021l-0.549,0.021h-0.021l-0.526,0.021h-0.022    l-0.548,0.021l0,0h-0.443h-0.021l-0.444,0.021l0,0l-0.443,0.021h-0.021h-0.442l0,0l-0.443,0.021h-0.021l-0.443,0.021l0,0    l-0.444,0.021l0,0l-0.442,0.021l0,0l-0.443,0.021l0,0l-0.444,0.021l0,0l-0.444,0.021l0,0l-0.441,0.021l0,0l-0.423,0.021h-0.021    l-0.423,0.021l0,0l-0.423,0.021h-0.021l-0.421,0.021l0,0l-0.423,0.022h-0.021l-0.402,0.021h-0.021l-0.402,0.042h-0.021    l-0.399,0.021l0,0l-0.423,0.021l0,0l-0.423,0.021l0,0l-0.4,0.042l0,0l-0.401,0.021h-0.021l-0.402,0.042l0,0l-0.379,0.021h-0.021    l-0.381,0.042h-0.021l-0.381,0.021l0,0l-0.399,0.042l0,0l-0.381,0.021l0,0l-0.381,0.042l0,0l-0.379,0.021v0.021l-0.381,0.021l0,0    l-0.36,0.042l0,0l-0.379,0.021v0.021l-0.359,0.021l-0.358,0.044l0,0l-0.359,0.042l0,0l-0.339,0.042l0,0l-0.337,0.042h-0.021    l-0.339,0.042l0,0l-0.337,0.042l0,0l-0.317,0.043l0,0l-0.316,0.042h-0.021l-0.318,0.042l0,0l-0.315,0.042l0,0l-0.297,0.042    l-0.315,0.042l-0.297,0.042l0,0l-0.295,0.065l0,0l-0.275,0.042l0,0l-0.273,0.042l0,0l-0.275,0.042v0.021l-0.273,0.042l0,0    l-0.276,0.042l0,0l-0.252,0.063l0,0l-0.255,0.042l0,0l-0.231,0.063l0,0l-0.231,0.042l0,0l-0.233,0.063l0,0l-0.231,0.042v0.021    l-0.213,0.044l0,0l-0.21,0.063l0,0l-0.211,0.063l0,0c-2.915,0.845-4.437,2.006-5.196,3.252c-0.76,1.204-0.907,2.704-0.993,4.013    L265.619,414.172z M318.86,420.803c-0.337-0.76-0.949-1.31-1.667-1.583c-0.719-0.297-1.563-0.297-2.344,0.042h-0.043    c-0.74,0.358-1.311,0.971-1.584,1.669c-0.275,0.739-0.297,1.583,0.042,2.365l0.021,0.042c0.339,0.739,0.951,1.288,1.669,1.563    c0.718,0.296,1.562,0.296,2.345-0.021l0.042-0.021c0.76-0.337,1.288-0.949,1.583-1.668c0.275-0.739,0.297-1.583-0.043-2.345    L318.86,420.803z M323.528,418.544l0.19,0.464c0.824,2.007,0.76,4.182,0.021,6.061c-0.74,1.902-2.176,3.506-4.16,4.437    l-0.465,0.21c-2.008,0.804-4.182,0.762-6.062,0.021c-1.881-0.739-3.485-2.175-4.415-4.14l-0.231-0.484    c-0.804-2.028-0.739-4.182,0-6.063c0.739-1.88,2.175-3.505,4.14-4.435l0.486-0.211c2.006-0.803,4.182-0.761,6.061-0.021    C320.973,415.122,322.6,416.579,323.528,418.544z M345.345,292.145c2.618,3.676,2.302,8.533,0.253,13.855l-0.042,0.126    c-4.857,12.439-19.957,27.476-25.786,33.306l-1.33,1.351c-1.015,0.993-2.662,0.993-3.676,0c-1.014-1.015-1.014-2.66,0-3.675    l1.331-1.351c5.638-5.598,20.212-20.127,24.646-31.51l0.043-0.105c1.879-4.901,1.646-9.167-2.811-11.385l0,0l-0.041-0.021    l-0.021-0.021h-0.043l-0.041-0.021l-0.043-0.021l-0.041-0.021l-0.021-0.021l-0.043-0.021h-0.041l-0.043-0.021l-0.041-0.021    l-0.043-0.021l0,0l-0.042-0.021h-0.021l-0.045-0.021l-0.041-0.021l-0.043-0.021l-0.084-0.042h-0.042l-0.085-0.042l-0.041-0.021    l-0.381-0.126c-8.574-2.894-21.119,6.778-32.418,19.303c-11.68,12.967-21.796,28.848-25.174,37.592l-0.423,1.141    c-2.154,6.378-3.358,15.648-3.992,25.005c-0.57,8.152-0.738,16.304-0.76,22.787c12.884-2.281,36.325-2.534,49.524-1.33h0.085    l0.255,0.021l0.336,0.021c4.521-26.251,14.573-35.374,25.218-45.006c6.947-6.293,14.169-12.818,20.041-25.047    c4.626-9.588,6.886-36.451,5.851-60.211c-0.844-19.555-3.738-36.746-9.123-39.346l-0.528-0.23    c-2.683-1.078-5.027-0.36-6.991,1.203c-2.323,1.858-4.224,4.814-5.596,7.666l-0.973,2.175c-2.809,6.948-5.025,17.086-6.229,27.328    C344.605,275.145,344.352,285.006,345.345,292.145z M246.38,414.172c0.486,6.188,1.309,16.326-0.317,18.691    c-1.288,1.879-4.773,2.766-8.679,3.759l-3.527,0.928c-9.083,2.62-18.29,7.879-27.244,13.01    c-9.314,5.322-18.395,10.519-26.335,12.103c-0.718,0.126-0.825,0.526-0.888,0.4c-0.231-0.465-0.231-1.858-0.21-3.695    c0.021-3.464-0.591-10.18-1.288-17.804c-1.351-14.826-3.02-33.326-1.225-35.818c0.633-0.886,1.69-1.585,3.104-2.155    c1.606-0.654,3.675-1.117,6.124-1.414h0.021h0.042h0.063v-0.021l0.296-0.021l0,0l0.295-0.042h0.021l0.297-0.021l0,0l0.338-0.042    l0.316-0.021l0,0l0.339-0.042h0.021l0.337-0.021l0,0l0.36-0.042l0.358-0.021l0,0l0.381-0.021l0,0l0.38-0.044l0,0l0.4-0.021    l0.381-0.021l0,0l0.402-0.021h0.021l0.4-0.021l0.423-0.021v-0.021l0.423-0.021l0,0l0.423-0.021h0.021l0.421-0.021l0,0l0.444-0.021    l0,0l0.465-0.021l0,0l0.444-0.021l0,0h0.463l0,0l0.465-0.021h0.021l0.465-0.021l0,0l0.486-0.021l0,0h0.486l0,0l0.484-0.021l0,0    l0.486-0.021l0,0l0.507-0.021l0,0h0.507l0,0l0.507-0.021l0,0h0.507h0.021l0.505-0.021l0,0h0.507h0.021h0.507l0,0l0.528-0.021    h0.021h0.507h0.021h0.528l0,0h0.528l0,0l0.549-0.021l0,0h0.528h0.021h0.526l0,0h0.549h0.021h0.528l0,0h0.549h0.021h1.098l0,0    h0.549l0,0h0.549h0.021l0.549,0.021l0,0h0.549h0.021h0.549l0,0l0.549,0.021h0.021h0.549h0.021h0.549l0,0l0.549,0.021h0.021h0.549    l0,0l0.548,0.021h0.021l0.549,0.021h0.021h0.549l0,0l0.549,0.021h0.021l0.549,0.021l0,0l0.549,0.021h0.021h0.444l0,0l0.444,0.021    h0.021l0.442,0.021l0,0h0.444h0.021l0.423,0.021h0.021l0.444,0.021l0,0l0.442,0.021l0,0l0.444,0.021l0,0l0.444,0.021h0.021    l0.423,0.021h0.021l0.421,0.021l0,0l0.444,0.021l0,0l0.444,0.021l0,0l0.423,0.021h0.021l0.421,0.021l0,0l0.423,0.021l0,0    l0.423,0.022h0.021l0.402,0.021h0.021l0.4,0.042h0.021l0.402,0.021h0.021l0.402,0.021l0,0l0.421,0.021l0,0l0.402,0.042l0,0    l0.402,0.021h0.021l0.4,0.042l0,0l0.402,0.021l0,0l0.381,0.042h0.021l0.379,0.021l0,0l0.402,0.042l0,0l0.381,0.021l0,0    l0.379,0.042l0,0l0.381,0.021v0.021l0.381,0.021l0,0l0.358,0.042h0.021l0.36,0.021v0.021l0.358,0.021l0.36,0.044l0,0l0.359,0.042    l0,0l0.337,0.042l0,0l0.36,0.042l0,0l0.337,0.042l0,0l0.339,0.042l0,0l0.317,0.043l0,0l0.337,0.042l0,0l0.318,0.042l0,0    l0.316,0.042l0,0l0.296,0.042l0.316,0.042l0.296,0.042l0,0l0.295,0.065l0,0l0.275,0.042l0,0l0.295,0.042l0,0l0.275,0.042v0.021    l0.253,0.042l0,0l0.273,0.042l0,0l0.254,0.063l0,0l0.253,0.042l0,0l0.233,0.063l0,0l0.252,0.042l0,0l0.21,0.063l0,0l0.233,0.042    v0.021l0.211,0.044l0,0l0.212,0.063l0,0l0.211,0.063l0,0c2.915,0.845,4.434,2.006,5.196,3.252c0.76,1.204,0.907,2.704,0.991,4.013    L246.38,414.172z M193.138,420.803c0.339-0.76,0.951-1.31,1.669-1.583c0.739-0.297,1.563-0.297,2.344,0.042h0.042    c0.76,0.358,1.309,0.971,1.585,1.669c0.294,0.739,0.294,1.583-0.042,2.365l-0.021,0.042c-0.338,0.739-0.951,1.288-1.668,1.563    c-0.718,0.296-1.563,0.296-2.345-0.021l-0.042-0.021c-0.739-0.337-1.288-0.949-1.584-1.668c-0.274-0.739-0.295-1.583,0.042-2.345    L193.138,420.803z M188.472,418.544l-0.191,0.464c-0.802,2.007-0.76,4.182-0.021,6.061c0.739,1.902,2.176,3.506,4.16,4.437    l0.465,0.21c2.005,0.804,4.182,0.762,6.061,0.021c1.879-0.739,3.485-2.175,4.436-4.14l0.211-0.484    c0.802-2.028,0.739-4.182,0-6.063c-0.718-1.88-2.176-3.505-4.14-4.435l-0.486-0.211c-2.006-0.803-4.161-0.761-6.061-0.021    C191.027,415.122,189.4,416.579,188.472,418.544z M166.655,292.145c-2.618,3.676-2.302,8.533-0.254,13.855l0.043,0.126    c4.857,12.439,19.957,27.476,25.786,33.306l1.33,1.351c1.015,0.993,2.662,0.993,3.675,0c1.014-1.015,1.014-2.66,0-3.675    l-1.33-1.351c-5.638-5.598-20.211-20.127-24.646-31.51l-0.042-0.105c-1.881-4.901-1.647-9.167,2.808-11.385l0,0l0.042-0.021    l0.021-0.021h0.042l0.044-0.021l0.042-0.021l0.042-0.021l0.042-0.021l0.021-0.021h0.042l0.042-0.021l0.042-0.021l0.042-0.021l0,0    l0.042-0.021h0.042l0.042-0.021l0.021-0.021l0.042-0.021l0.086-0.042h0.042l0.084-0.042l0.042-0.021l0.379-0.126    c8.576-2.894,21.12,6.778,32.419,19.303c11.699,12.967,21.794,28.848,25.174,37.592l0.423,1.141    c2.153,6.378,3.357,15.648,3.992,25.005c0.568,8.152,0.739,16.304,0.76,22.787c-12.883-2.281-36.325-2.534-49.524-1.33h-0.084    l-0.254,0.021l-0.316,0.021c-4.542-26.251-14.594-35.374-25.239-45.006c-6.947-6.293-14.15-12.818-20.041-25.047    c-4.625-9.588-6.886-36.451-5.85-60.211c0.844-19.555,3.758-36.746,9.123-39.346l0.549-0.23c2.66-1.078,5.004-0.36,6.97,1.203    c2.324,1.858,4.224,4.814,5.596,7.666l0.972,2.175c2.829,6.948,5.025,17.086,6.25,27.328    C167.394,275.145,167.648,285.006,166.655,292.145z M307.984,248.83c-13.263-1.965-31.657-3.189-51.974-3.189    c-20.338,0-38.712,1.225-51.995,3.189c-12.019,1.773-19.473,3.653-19.473,5.193c0,1.543,7.454,3.422,19.473,5.196    c13.262,1.964,31.657,3.19,51.995,3.19c20.316,0,38.711-1.227,51.974-3.19c12.017-1.774,19.473-3.653,19.473-5.196    C327.457,252.483,320.001,250.604,307.984,248.83z M254.996,137.51l0.846,0.064l1.076-0.085h0.021h0.021l0.022-0.021l0.886-0.191    c1.204-0.337,2.281-0.992,3.146-1.857c1.332-1.311,2.134-3.147,2.134-5.175c0-2.006-0.802-3.843-2.134-5.153    c-1.33-1.33-3.146-2.154-5.172-2.154c-1.965,0-3.74,0.782-5.049,2.028l-0.105,0.126c-1.33,1.311-2.155,3.147-2.155,5.153    c0,2.027,0.825,3.864,2.134,5.175c0.928,0.929,2.111,1.604,3.443,1.942l0.084,0.021l0.084,0.021l0.359,0.064l0.084,0.021    L254.996,137.51z M310.055,135.778c1.436,0,2.598,1.162,2.598,2.599c0,1.436-1.162,2.597-2.598,2.597h-8.701    c-1.436,0-2.598-1.161-2.598-2.597c0-1.437,1.162-2.599,2.598-2.599H310.055z M201.755,140.974c-1.416,0-2.576-1.161-2.576-2.597    c0-1.437,1.16-2.599,2.576-2.599h8.7c1.437,0,2.599,1.162,2.599,2.599c0,1.436-1.162,2.597-2.599,2.597H201.755z M153.708,140.974    c-1.435,0-2.597-1.161-2.597-2.597c0-1.437,1.162-2.599,2.597-2.599h16.411c1.435,0,2.597,1.162,2.597,2.599    c0,1.436-1.162,2.597-2.597,2.597H153.708z M253.307,28.599c0-1.437,1.162-2.597,2.599-2.597c1.436,0,2.597,1.16,2.597,2.597    v25.28c0,1.436-1.161,2.598-2.597,2.598c-1.437,0-2.599-1.162-2.599-2.598V28.599z M355.861,81.207    c1.269-0.676,2.83-0.212,3.527,1.055c0.677,1.247,0.191,2.831-1.055,3.506l-23.295,12.631c-1.269,0.696-2.83,0.21-3.527-1.035    c-0.677-1.268-0.212-2.83,1.055-3.527L355.861,81.207z M153.477,85.768c-1.246-0.675-1.711-2.259-1.035-3.506    c0.675-1.267,2.26-1.73,3.506-1.055l23.294,12.629c1.267,0.697,1.732,2.26,1.056,3.527c-0.676,1.245-2.26,1.731-3.527,1.035    L153.477,85.768z M304.796,53.857c0.76-1.204,2.345-1.584,3.569-0.846c1.225,0.762,1.604,2.345,0.844,3.57l-8.194,13.368    c-0.76,1.204-2.345,1.583-3.569,0.845c-1.225-0.761-1.604-2.344-0.865-3.569L304.796,53.857z M202.6,56.582    c-0.76-1.226-0.379-2.809,0.846-3.57c1.225-0.738,2.829-0.358,3.569,0.846l8.214,13.368c0.74,1.226,0.359,2.809-0.865,3.569    c-1.204,0.738-2.81,0.359-3.548-0.845L202.6,56.582z M253.307,76.477c0-1.438,1.162-2.599,2.599-2.599    c1.436,0,2.597,1.161,2.597,2.599v14.255c0,1.415-1.161,2.576-2.597,2.576c-1.437,0-2.599-1.161-2.599-2.576V76.477z     M308.218,105.177c1.246-0.718,2.829-0.296,3.546,0.95c0.72,1.226,0.297,2.83-0.949,3.527l-12.334,7.138    c-1.246,0.719-2.83,0.296-3.548-0.95c-0.718-1.225-0.295-2.83,0.951-3.527L308.218,105.177z M200.996,109.654    c-1.227-0.697-1.648-2.302-0.93-3.527c0.697-1.246,2.302-1.668,3.527-0.95l12.355,7.138c1.225,0.697,1.646,2.303,0.928,3.527    c-0.718,1.246-2.302,1.669-3.527,0.95L200.996,109.654z M280.74,90.182c0.719-1.225,2.302-1.646,3.526-0.949    c1.246,0.717,1.669,2.301,0.951,3.527l-4.35,7.539c-0.698,1.246-2.281,1.668-3.527,0.949c-1.225-0.696-1.647-2.281-0.951-3.526    L280.74,90.182z M226.592,92.76c-0.699-1.227-0.275-2.811,0.949-3.527c1.246-0.697,2.831-0.275,3.527,0.949l4.35,7.54    c0.72,1.245,0.297,2.83-0.949,3.526c-1.225,0.719-2.81,0.297-3.527-0.949L226.592,92.76z M358.1,135.778    c1.438,0,2.6,1.162,2.6,2.599c0,1.436-1.162,2.597-2.6,2.597h-16.408c-1.438,0-2.599-1.161-2.599-2.597    c0-1.437,1.161-2.599,2.599-2.599H358.1z M301.29,286.633c1.099-0.907,2.724-0.76,3.632,0.317c0.907,1.099,0.76,2.745-0.338,3.653    c-0.105,0.084-37.274,30.939-41.478,45.617c-4.329,15.143-4.794,53.854-4.794,53.98v0.063v0.063l0,0v0.063l0,0v0.063h-0.021v0.065    l0,0v0.063l0,0l-0.021,0.063l0,0v0.063l0,0l-0.021,0.063l0,0l-0.021,0.063l0,0l-0.021,0.063l0,0v0.063h-0.021v0.063h-0.023v0.063    l0,0l-0.021,0.064h-0.021l-0.021,0.043l0,0l-0.021,0.063l0,0l-0.021,0.063l0,0l-0.021,0.042h-0.021l-0.021,0.063l0,0l-0.021,0.063    l0,0l-0.042,0.042l0,0l-0.021,0.063l0,0l-0.043,0.042l0,0l-0.021,0.063h-0.021l-0.021,0.044l0,0l-0.042,0.042l0,0l-0.042,0.063    l0,0l-0.043,0.042l0,0l-0.042,0.042l0,0l-0.042,0.042l0,0l-0.044,0.042l0,0l-0.042,0.063l0,0l-0.042,0.042l0,0l-0.042,0.021    h-0.021l-0.042,0.041l0,0l-0.042,0.043l0,0l-0.042,0.042h-0.021l-0.042,0.044l0,0l-0.042,0.021l0,0l-0.063,0.041l0,0l-0.042,0.043    l0,0l-0.063,0.021l0,0l-0.044,0.042l0,0l-0.063,0.021l0,0l-0.063,0.021l0,0l-0.042,0.041l0,0l-0.063,0.021l0,0l-0.063,0.021l0,0    l-0.063,0.021l0,0l-0.042,0.021h-0.021l-0.042,0.021l0,0l-0.063,0.021l0,0l-0.065,0.021l0,0h-0.063l0,0l-0.063,0.021l0,0    l-0.063,0.021l0,0h-0.063l0,0h-0.063l0,0l-0.063,0.021l0,0h-0.063h-0.021h-0.042h-0.021h-0.065l0,0h-0.063l0,0h-0.063l0,0h-0.063    l0,0h-0.063l0,0h-0.063l0,0l-0.063-0.021h-0.021h-0.063l0,0h-0.063l0,0l-0.042-0.021h-0.021l-0.065-0.021l0,0h-0.042h-0.021    l-0.042-0.021h-0.021l-0.042-0.021l0,0l-0.063-0.021l0,0l-0.063-0.021l0,0l-0.063-0.021l0,0l-0.063-0.021l0,0l-0.042-0.021l0,0    l-0.063-0.041l0,0l-0.065-0.021l0,0l-0.042-0.021l0,0l-0.063-0.042l0,0l-0.063-0.021l0,0l-0.042-0.043l0,0l-0.042-0.041h-0.021    l-0.042-0.021l0,0l-0.042-0.044l0,0l-0.063-0.042l0,0l-0.042-0.043l0,0l-0.042-0.041l0,0l-0.044-0.021h-0.021l-0.042-0.042l0,0    l-0.042-0.063l0,0l-0.042-0.042l0,0l-0.042-0.042l0,0l-0.042-0.042l0,0l-0.042-0.042l0,0l-0.021-0.063h-0.021l-0.021-0.042l0,0    l-0.042-0.044l0,0l-0.042-0.063l0,0l-0.021-0.042l0,0l-0.042-0.063l0,0l-0.021-0.042h-0.021l-0.021-0.063l0,0l-0.021-0.063l0,0    l-0.044-0.042l0,0l-0.021-0.063l0,0l-0.021-0.063l0,0l-0.021-0.043l0,0l-0.021-0.064l0,0l-0.021-0.063l0,0l-0.021-0.063l0,0    l-0.021-0.063l0,0l-0.021-0.063l0,0l-0.021-0.063l0,0v-0.063l0,0l-0.021-0.063l0,0v-0.063l0,0l-0.021-0.063l0,0v-0.065l0,0v-0.063    h-0.021v-0.063l0,0v-0.063v-0.063c0-0.126-0.465-38.838-4.794-53.98c-4.181-14.678-41.372-45.533-41.479-45.617    c-1.097-0.908-1.246-2.555-0.337-3.653c0.907-1.077,2.555-1.225,3.632-0.317c0.126,0.084,38.543,31.954,43.167,48.173    c0.993,3.442,1.774,7.962,2.407,12.968c0.634-5.006,1.438-9.525,2.407-12.968C262.747,318.587,301.185,286.717,301.29,286.633z     M242.599,485.999c-1.436,0-2.597-1.162-2.597-2.6c0-1.414,1.162-2.575,2.597-2.575h101.33c1.438,0,2.599,1.161,2.599,2.575    c0,1.438-1.161,2.6-2.599,2.6H242.599z M354.299,485.999c-1.437,0-2.598-1.162-2.598-2.6c0-1.414,1.161-2.575,2.598-2.575h12.672    c1.414,0,2.597,1.161,2.597,2.575c0,1.438-1.183,2.6-2.597,2.6H354.299z M151.09,485.744c-1.437,0-2.599-1.162-2.599-2.597    c0-1.436,1.162-2.598,2.599-2.598h48.003c1.438,0,2.599,1.162,2.599,2.598c0,1.435-1.162,2.597-2.599,2.597H151.09z     M178.207,477.107c-1.435,0-2.597-1.162-2.597-2.599c0-1.436,1.162-2.598,2.597-2.598h125.068c1.438,0,2.599,1.162,2.599,2.598    c0,1.437-1.161,2.599-2.599,2.599H178.207z M257.53,142.643h-0.042h-0.021l-0.021,0.021l0,0h-0.021h-0.042h-0.021h-0.021h-0.021    h-0.021l-0.021,0.021h-0.021h-0.021h-0.021h-0.021h-0.042h-0.021l0,0h-0.021l-0.021,0.021h-0.021h-0.063h-0.021h-0.022l0,0h-0.042    h-0.021h-0.021l-0.042,0.021h-0.021l0,0h-0.021h-0.021h-0.021h-0.042h-0.021h-0.021h-0.021l0,0h-0.042h-0.021h-0.021l-0.021,0.021    h-0.042l0,0h-0.021h-0.021h-0.021h-0.042h-0.022h-0.021h-0.021l0,0h-0.042h-0.021h-0.021h-0.021h-0.042l0,0h-0.021h-0.021h-0.021    h-0.042h-0.021h-0.021l0,0h-0.021l0,0h-0.021h-0.042h-0.021h-0.021h-0.021h-0.042c-0.465,0-0.93-0.021-1.374-0.063l-32.819,53.368    l-49.017-26.293l-0.296,0.295c-0.274,0.296-0.591,0.57-0.907,0.846l12.334,78.035l0.189-0.105h0.021l0.189-0.105l0.149-0.064    l0.042-0.021l0.21-0.105l0.105-0.042c17.044-8.046,66.271-8.046,71.341-8.046c6.651,0,52.903-0.021,70.792,7.793l0.168,0.084    l0.043,0.021l0.21,0.084l0.106,0.063l0.105,0.042l0.211,0.105l0.042,0.021l0.147,0.064l0.191,0.105h0.021l0.189,0.105    l12.079-76.452c-0.949-0.485-1.858-1.099-2.64-1.837l-47.306,25.406L257.53,142.643z" style="fill-rule:evenodd;clip-rule:evenodd;"/></g></g><g id="Layer_1"/></svg>